<?xml version="1.0" standalone="no"?>
<!DOCTYPE svg PUBLIC "-//W3C//DTD SVG 20010904//EN"
 "http://www.w3.org/TR/2001/REC-SVG-20010904/DTD/svg10.dtd">
<svg version="1.0" xmlns="http://www.w3.org/2000/svg"
 width="215.000000pt" height="169.000000pt" viewBox="0 0 215.000000 169.000000"
 preserveAspectRatio="xMidYMid meet">

<g transform="translate(0.000000,169.000000) scale(0.100000,-0.100000)"
fill="#000000" stroke="none">
<path d="M1323 1128 l-483 -483 -233 233 -233 232 -44 0 c-42 0 -48 -4 -142
-98 -149 -150 -173 -102 257 -531 349 -351 355 -356 395 -356 40 0 44 4 643
603 l602 602 0 45 c0 45 -3 48 -96 140 -92 91 -98 95 -140 95 l-44 0 -482
-482z"/>
</g>
</svg>
