<?xml version="1.0" standalone="no"?>
<!DOCTYPE svg PUBLIC "-//W3C//DTD SVG 20010904//EN"
 "http://www.w3.org/TR/2001/REC-SVG-20010904/DTD/svg10.dtd">
<svg version="1.0" xmlns="http://www.w3.org/2000/svg"
 width="190.000000pt" height="184.000000pt" viewBox="0 0 190.000000 184.000000"
 preserveAspectRatio="xMidYMid meet">

<g transform="translate(0.000000,184.000000) scale(0.100000,-0.100000)"
fill="#000000" stroke="none">
<path d="M1524 1774 c-16 -8 -58 -43 -93 -78 l-62 -63 150 -154 149 -154 62
60 c78 76 100 118 100 190 0 87 -53 170 -127 201 -43 18 -140 17 -179 -2z"/>
<path d="M743 1008 c-413 -415 -537 -544 -557 -584 -31 -64 -96 -280 -96 -321
0 -35 20 -56 53 -55 38 0 270 73 327 103 43 23 172 146 585 559 l530 530 -150
150 c-82 82 -152 150 -155 150 -3 0 -244 -240 -537 -532z"/>
</g>
</svg>
