<?xml version="1.0" standalone="no"?>
<!DOCTYPE svg PUBLIC "-//W3C//DTD SVG 20010904//EN"
 "http://www.w3.org/TR/2001/REC-SVG-20010904/DTD/svg10.dtd">
<svg version="1.0" xmlns="http://www.w3.org/2000/svg"
 width="189.000000pt" height="214.000000pt" viewBox="0 0 189.000000 214.000000"
 preserveAspectRatio="xMidYMid meet">

<g transform="translate(0.000000,214.000000) scale(0.100000,-0.100000)"
fill="#000000" stroke="none">
<path d="M686 2066 c-54 -20 -70 -39 -152 -174 l-70 -117 -177 -5 c-208 -6
-211 -7 -211 -94 0 -72 20 -96 80 -96 l43 0 3 -687 3 -688 23 -33 c13 -17 40
-44 59 -60 l36 -27 601 -3 c410 -2 613 0 638 8 50 14 97 56 119 105 17 37 19
82 19 713 l0 672 43 0 c61 0 81 24 81 96 0 87 -3 88 -211 94 l-177 5 -74 123
c-55 92 -84 130 -115 150 l-40 27 -241 2 c-188 2 -250 0 -280 -11z m497 -233
l35 -58 -134 -3 c-74 -1 -194 -1 -268 0 l-134 3 35 58 36 57 197 0 197 0 36
-57z m327 -908 l0 -655 -560 0 -560 0 0 655 0 655 560 0 560 0 0 -655z"/>
<path d="M652 1378 c-18 -18 -18 -891 1 -906 21 -18 65 -25 111 -18 38 6 46
11 55 38 17 47 15 835 -2 868 -11 23 -19 25 -82 28 -46 2 -74 -1 -83 -10z"/>
<path d="M1090 1380 c-13 -8 -15 -70 -15 -454 0 -352 3 -448 13 -458 18 -18
134 -17 155 1 15 12 17 56 17 455 0 330 -3 445 -12 454 -14 14 -136 16 -158 2z"/>
</g>
</svg>
